# xmcd CD database file
#
# Track frame offsets:
#	150
#	23460
#	50015
#	67142
#	91880
#	108012
#	130992
#	143915
#	167042
#
# Disc length: 2492 seconds
#
# Revision: 0
# Processed by: cddbd v1.5.2PL0 Copyright (c) Steve Scherf et al.
# Submitted via: CDex 1.70beta2
#
DISCID=7509ba09
DTITLE=Milt Jackson - At The Museum of Art
DYEAR=1900
DGENRE=Jazz
TTITLE0=The Quota
TTITLE1=Novamo
TTITLE2=Enigma
TTITLE3=Turquoise
TTITLE4=Chyrise
TTITLE5=Montelei
TTITLE6=Simplicity and Beauty
TTITLE7=Flying Saucer
TTITLE8=Namesake
EXTD=
EXTT0=
EXTT1=
EXTT2=
EXTT3=
EXTT4=
EXTT5=
EXTT6=
EXTT7=
EXTT8=
PLAYORDER=
